<svg width="36" height="36" viewBox="0 0 36 36" fill="none" xmlns="http://www.w3.org/2000/svg"><title>AsyncAPI Logo</title><defs><linearGradient id="gradient1" x1="33.0317" y1="3.3661" x2="4.57364" y2="32.1761" gradientUnits="userSpaceOnUse"><stop stop-color="#2DCCFD"></stop><stop offset="100%" stop-color="#AD20E2"></stop></linearGradient><linearGradient id="gradient2" x1="33.0317" y1="32.6313" x2="4.571" y2="3.82126" gradientUnits="userSpaceOnUse"><stop stop-color="#A829E2"></stop><stop offset="5%" stop-color="#A829E2" stop-opacity="84%"></stop><stop offset="11%" stop-color="#A829E2" stop-opacity="67%"></stop><stop offset="18%" stop-color="#A829E2" stop-opacity="51%"></stop><stop offset="25%" stop-color="#A829E2" stop-opacity="38%"></stop><stop offset="33%" stop-color="#A829E2" stop-opacity="28%"></stop><stop offset="43%" stop-color="#A829E2" stop-opacity="20%"></stop><stop offset="54%" stop-color="#A829E2" stop-opacity="14%"></stop><stop offset="68%" stop-color="#A829E2" stop-opacity="11%"></stop><stop offset="100%" stop-color="#A829E2" stop-opacity="10%"></stop></linearGradient><linearGradient id="gradient3" x1="3.41005" y1="32.6313" x2="31.8682" y2="3.82129" gradientUnits="userSpaceOnUse"><stop stop-color="#E50E99"></stop><stop offset="100%" stop-color="#A829E2" stop-opacity="10%"></stop></linearGradient><linearGradient id="gradient4" x1="33.0317" y1="3.36871" x2="4.57097" y2="32.1761" gradientUnits="userSpaceOnUse"><stop stop-color="#21D4FD"></stop><stop offset="3%" stop-color="#27CDFC" stop-opacity="96%"></stop><stop offset="23%" stop-color="#4E9CF4" stop-opacity="70%"></stop><stop offset="43%" stop-color="#6E73EE" stop-opacity="49%"></stop><stop offset="61%" stop-color="#8753E9" stop-opacity="32%"></stop><stop offset="77%" stop-color="#993CE5" stop-opacity="20%"></stop><stop offset="90%" stop-color="#A42EE3" stop-opacity="13%"></stop><stop offset="100%" stop-color="#A829E2" stop-opacity="10%"></stop></linearGradient></defs><path d="M27.8228 0H8.61905C3.85888 0 0 3.8121 0 8.51456V27.4854C0 32.1879 3.85888 36 8.61905 36H27.8228C32.5829 36 36.4418 32.1879 36.4418 27.4854V8.51456C36.4418 3.8121 32.5829 0 27.8228 0Z" fill="url(#gradient1)"></path><path d="M27.8228 0H8.61905C3.85888 0 0 3.8121 0 8.51456V27.4854C0 32.1879 3.85888 36 8.61905 36H27.8228C32.5829 36 36.4418 32.1879 36.4418 27.4854V8.51456C36.4418 3.8121 32.5829 0 27.8228 0Z" fill="url(#gradient2)"></path><path d="M27.8228 0H8.61905C3.85888 0 0 3.8121 0 8.51456V27.4854C0 32.1879 3.85888 36 8.61905 36H27.8228C32.5829 36 36.4418 32.1879 36.4418 27.4854V8.51456C36.4418 3.8121 32.5829 0 27.8228 0Z" fill="url(#gradient3)"></path><path d="M27.8228 0H8.61905C3.85888 0 0 3.8121 0 8.51456V27.4854C0 32.1879 3.85888 36 8.61905 36H27.8228C32.5829 36 36.4418 32.1879 36.4418 27.4854V8.51456C36.4418 3.8121 32.5829 0 27.8228 0Z" fill="url(#gradient4)"></path><path d="M11.7645 14.1988L10.6799 15.6754L19.1508 21.749L19.209 21.7908L20.2936 20.3142L11.8227 14.2406L11.7645 14.1988Z" fill="white"></path><path d="M17.2989 14.2406L17.2407 14.1988L16.1561 15.6754L24.627 21.749L24.6852 21.7908L25.7698 20.3142L17.2989 14.2406Z" fill="white"></path><path d="M18.2275 6.64075C13.6349 6.64075 9.89948 9.46064 9.89948 12.9261V12.9966H11.7513V12.9261C11.7513 10.4668 14.6614 8.46492 18.2328 8.46492C21.8042 8.46492 24.7143 10.4668 24.7143 12.9261V12.9966H26.5661V12.9261C26.5556 9.46064 22.8201 6.64075 18.2275 6.64075Z" fill="white"></path><path d="M24.6958 23.0714C24.6958 25.5306 21.7857 27.5325 18.2116 27.5325C14.6376 27.5325 11.7301 25.5306 11.7301 23.0714V23.0008H9.8783V23.0714C9.8783 26.5368 13.6137 29.3567 18.2063 29.3567C22.7989 29.3567 26.5344 26.5368 26.5344 23.0714V23.0008H24.6825L24.6958 23.0714Z" fill="white"></path></svg>
