<?xml version="1.0" encoding="UTF-8"?><svg id="Layer_2" xmlns="http://www.w3.org/2000/svg" viewBox="0 0 177.75 53.62"><g id="Layer_1-2"><g><path d="M31.54,42.67c.81-1.02,1.52-2.15,1.62-3.48,0-.82-.1-1.74-.2-2.66l-1.82-15.86-6.67,22.61c-1.72-.41-3.34-1.43-4.85-2.46-2.22-1.43-2.83-3.48-3.74-5.83l-5.46-14.33-1.52,15.14c0,.82-.3,1.94-.3,2.76,0,.1,.1,.41,.1,.51,.2,1.54,1.01,2.76,2.22,3.58H.91c2.02-2.15,2.22-3.99,2.53-6.86L5.76,15.97c.1-.61,.2-2.05,.2-3.17,0-.92-.4-2.76-1.92-4.3H15.87l7.58,20.06,5.86-20.06h12.33c-1.42,1.43-1.92,2.15-1.92,4.3l.3,3.17,2.22,19.34c.3,2.76,.81,5.32,2.73,7.37h-13.45Z"/><path d="M70.67,43.19c-.71,.1-1.52,.2-2.22,.2-2.22,0-4.45-.61-6.17-2.05-2.12-1.64-2.73-3.79-2.73-6.45v-3.38c-1.62,.72-4.55,1.74-4.55,3.79,0,1.64,1.21,3.48,2.93,3.48,.4,0,.71-.1,1.11-.1l-2.22,4.5c-1.01,.1-2.02,.2-3.03,.2-2.33,0-8.39-1.13-8.39-7.47,0-1.54,.61-3.38,1.62-4.5,2.33-2.46,5.76-2.87,8.8-3.58,1.21-.31,3.64-.92,3.64-2.66,0-1.33-1.72-2.15-2.93-2.15-2.43,0-4.75,.61-6.77,1.74l2.33-5.94c2.33-.61,4.75-.72,7.18-.72,6.67,0,9.3,3.68,9.3,9.31v5.42c0,.2-.1,.51-.1,.72,0,1.64,.2,3.38,1.62,4.3,.81,.61,1.72,.82,2.73,.82l-2.12,4.5Z"/><path d="M87.05,24.15c-1.52,0-3.03,.72-3.94,1.94-.51,.72-.71,1.53-.71,2.35v9.41c0,2.05,.3,3.38,1.82,4.81h-12.54c1.52-1.53,1.82-2.66,1.82-4.81v-14.33c0-2.05-.3-3.27-1.82-4.81h7.18c1.11,0,2.22-.31,3.24-.72v3.68c1.21-2.15,3.03-3.58,5.97-3.58,.81,0,1.11,0,1.82,.1v6.34c-.91-.2-1.82-.41-2.83-.41Z"/><path d="M119.71,42.67c1.52-1.53,1.72-2.66,1.72-4.81v-10.13c0-1.94-.1-4.3-2.73-4.3-2.43,0-2.53,2.46-2.53,4.3v10.13c0,2.05,.3,3.38,1.72,4.81h-12.44c1.52-1.53,1.72-2.66,1.72-4.81v-10.13c0-1.84-.2-4.2-2.63-4.2s-2.83,2.35-2.83,4.2c0,.2,.1,.51,.1,.72v9.41c0,2.05,.3,3.38,1.82,4.81h-12.54c1.52-1.53,1.82-2.66,1.82-4.81v-14.33c0-2.05-.3-3.27-1.82-4.81h7.18c1.11,0,2.22-.2,3.34-.72v3.07c1.52-1.74,3.44-2.97,5.86-2.97,2.63,0,4.85,1.02,6.57,2.97,1.82-1.94,4.45-2.97,7.18-2.97,4.85,0,9.2,2.35,9.2,7.78v11.97c0,2.05,.3,3.38,1.72,4.81h-12.44Z"/><path d="M146.3,43.39c-7.48,0-12.84-5.01-12.84-12.79s5.96-12.48,13.35-12.48c8.29,0,13.25,5.53,13.25,12.59,0,8.08-6.17,12.69-13.75,12.69Zm.2-20.36c-3.64,0-4.45,3.68-4.45,6.75s.51,8.6,4.65,8.6,4.65-3.99,4.65-7.47c0-3.17-.81-7.88-4.85-7.88Z"/><path d="M175.53,42.98c-1.42,.2-2.73,.41-4.15,.41-2.22,0-4.95-.51-6.57-2.25-1.52-1.64-1.72-3.79-1.72-5.94v-11.67h-3.03v-3.58c2.33-.41,4.14-1.13,5.76-2.87,1.52-1.64,2.43-3.58,2.73-5.73h3.54v7.37h5.66v6.34c-1.21-1.13-1.72-1.53-3.44-1.53h-2.22v10.33c0,3.89,2.33,4.5,5.66,4.71l-2.22,4.4Z"/></g></g></svg>