<?xml version="1.0" encoding="UTF-8"?><svg id="a" xmlns="http://www.w3.org/2000/svg" viewBox="0 0 411.91 308.28"><g id="b"><path d="M234.39,226.2c-3.47-9.83-2.06-19.5,.99-29.11,2.11-6.61,5.62-12.49,10.15-17.65,5.93-6.74,13.17-11.69,21.79-14.47,1.07-.34,2.16-.63,3.05-1.38,.8-.68,1.09-1.53,.77-2.5-.33-.99-1.09-1.39-2.17-1.37-2.71,.04-5.23,.78-7.67,1.88-17.48,7.84-28.63,21.05-33.57,39.54-.08,.32-.22,.62-.33,.93-7.37,1.35-14.68,.87-21.94-.85,.63-4.06,1.55-8.07,1.66-12.2,.06-2.4-.19-4.77-.43-7.15-.04-.45-.2-.92-.4-1.32-.49-.96-1.26-1.59-2.39-1.44-1.12,.15-1.18,1.18-1.3,1.99-.43,2.82-.87,5.63-1.16,8.47-.95,9.34-3.92,18.08-7.88,26.52-2.08,4.43-4.09,8.92-7.31,12.7-.93-.14-1.5,.42-2,1.07-4.73,6.27-10.13,11.94-15.76,17.38-4.72,4.57-10.47,7.46-16.85,8.8-5.13,1.08-10.36,1.24-15.61,.56-7.31-.94-14.22-3-20.57-6.8,0-3.73-.06-7.45-.01-11.18,.14-12.37,3.03-24.2,7.14-35.78,.95-2.69,1.89-5.38,2.84-8.06,.36-1.02,.78-2.04-.38-2.86-1.22-.86-2.11-.03-3.02,.63-.37,.27-.71,.59-1.07,.88-.03-.83,.24-1.59,.62-2.29,3.11-5.65,6.1-11.37,10.15-16.45,1.62-2.03,3.12-4.14,4.29-6.48,.26-.51,.74-1.07,.23-1.65-.4-.46-.98-.29-1.51-.22-2.27,.32-4.38-.22-6.3-1.37-1.72-1.03-1.59-2.66,.24-3.47,1.15-.51,2.38-.85,3.56-1.29,9.76-3.68,16.07-12.52,15.62-22.8-.44-9.94-4.68-18.36-11.93-25.14-6.3-5.89-14.05-8.71-22.45-9.96-1.74-.26-3.12-.88-3.99-2.57-1.93-3.78-4.54-7.14-7.73-9.84-12.88-10.87-27.03-14.38-42.85-6.7-.83,.4-1.15,.05-1.6-.41,4.28-7.02,5.01-14.5,1.75-21.93-4.13-9.43-12.89-12.01-20.83-5.95-7.85,5.99-12.06,19.5-7.11,29.36,2.76,5.49,7.49,8.03,13.56,6.88,1.65-.31,3.07-1.21,4.71-1.48-.06,.84-.81,1.17-1.3,1.67-2.38,2.43-4.74,4.94-6.33,7.94-1.12,2.1-2.54,2.68-4.78,2.56-4.3-.25-8.51,.29-12.33,2.53-9.61,5.63-13.56,14.55-14.69,25.15-.2,1.88,.13,3.8-.45,5.64-4.81-12.31-4.87-24.58,.35-36.8,1.29-3.01,2.89-5.83,4.78-8.49,1.3-1.83,2.97-3.36,5-4.19,1.77-.73,2.35-1.91,2.54-3.58,.67-5.96,1.9-11.79,4.03-17.4,3.86-10.16,9.14-19.44,16.8-27.27,2.93-2.99,5.75-6.09,8.88-8.89,1.07-.96,1.42-2.04,.98-3.38-1-3.04-2.43-5.87-4.55-8.28-.59-.67-1.47-1.15-2.3-1.54-1.06-.51-2.28-.7-3.17,.23-.9,.94-.49,2.08,0,3.16,.99,2.22,2.59,4.13,3.31,6.51,.22,.72,.31,1.23-.25,1.79-1.79,1.76-3.57,3.54-5.35,5.32-.5,.5-.77,.25-1.06-.24-2.48-4.14-3.95-8.55-3.33-13.43,.44-3.47,1.61-6.68,4.02-9.33,3.15-3.47,7.12-4.31,11.45-3.21,4.44,1.12,8.55,2.93,10.84,7.37,.65,1.27,1.01,2.44,.18,3.74-.14,.22-.17,.51-.29,.74-.51,1.03-.32,2.01,.42,2.77,.81,.83,1.72,.34,2.55-.13,4.47-2.56,9.31-4.18,14.29-5.38,11.09-2.68,22.33-3.35,33.69-2.6,6.53,.43,12.94,1.43,19.23,3.23,1.32,.38,2.16,.97,2.78,2.24,1.14,2.34,2.62,2.45,4.2,.29,1.68-2.3,3.04-4.84,5.19-6.78,6.58-5.93,17.96-8.41,25.82-1.47,3.79,3.35,5.4,7.64,5.84,12.45,.47,5.18-.78,10.03-3.53,14.44-2.23,3.57-2.85,6.91-.05,10.62,4.15,5.49,6.62,11.91,9.4,18.15,2.05,4.6,4.07,9.23,6.83,13.47,.49,.75,.92,1.79,2.09,1.52,1.24-.29,1.86-1.25,2-2.47,.14-1.21-.14-2.39-.61-3.5-3.8-8.99-7.81-17.87-12.23-26.58-.18-.35-.27-.74-.4-1.1-.32-.88-1.62-1.61-1.03-2.54,.52-.82,1.86-.56,2.82-.68,3.45-.42,6.92-.31,10.37-.13,10.39,.53,20.61,2.15,30.66,4.91,11.64,3.2,22.68,7.82,33.12,13.9,6.95,4.05,13.61,8.49,19.73,13.76,13.49,11.61,24.57,25.12,33.09,40.77,7.02,12.89,12.07,26.49,15.24,40.81-1.03,.31-.68,1.18-.68,1.85-.01,4.33,.1,8.66,0,12.99-.1,4.1-.56,8.2-1.31,12.23-1.33,7.2-3.64,14.05-6.87,20.7-4.25,8.73-10.47,15.72-18.02,21.42-9.64,7.27-20.63,10.84-32.9,10.28-9.4-.43-18.02-2.78-25.59-8.57-1.28-.98-2.38-2.35-4.13-2.62l.02-.04ZM149.5,76.08c-.15-9.88-4.59-16.25-12.06-20.53-6.49-3.71-13.26-3.99-19.56,.43-4.81,3.38-7.97,8-9.05,14.01-1.33,7.42,.02,14.02,5.15,19.65,5.88,6.44,13.09,8.68,21.52,6.23,7.02-2.04,14.53-10.96,14-19.79Zm7.08-49.48c1.11-2.08,2.21-3.59,3.84-4.72,1.47-1.03,2.89-2.13,4.3-3.25,1.06-.84,1.36-1.88,.74-3.18-.59-1.22-1.51-1.31-2.66-1.05-.97,.22-1.92,.41-2.84,.88-5.38,2.75-8.94,7.23-11.82,12.35-.78,1.38-.64,2.99-.39,4.5,.23,1.4,1.24,2.16,2.6,1.78,1.33-.36,2.31-.04,3.32,.74,.83,.65,1.78,1.17,2.6,1.84,1.58,1.3,3.05,2.75,4.68,4,1.29,.99,2.61,.58,2.74-.77,.22-2.33-.07-4.52-2.2-6.04-.56-.4-1.29-.71-1.45-1.5,.33-.46,.75-.2,1.12-.23,1.37-.12,2.98,.05,3.25-1.87,.25-1.8-1.13-2.58-2.44-3.26-1.62-.83-3.35-.6-5.37-.23h-.02Z" style="fill:#c89156; stroke:#c89156; stroke-miterlimit:10;"/><path d="M9.54,135.16c.58-1.84,.25-3.76,.45-5.64,1.13-10.6,5.09-19.52,14.69-25.15,3.82-2.24,8.03-2.77,12.33-2.53,2.24,.13,3.67-.45,4.78-2.56,1.59-3.01,3.95-5.51,6.33-7.94,.49-.5,1.24-.83,1.3-1.67v.03c.33,.03,.42-.15,.39-.43,2.79-1.83,5.41-3.84,7.52-6.46,.45,.45,.77,.81,1.6,.41,15.82-7.68,29.97-4.18,42.85,6.7,3.2,2.7,5.81,6.06,7.73,9.84,.86,1.69,2.25,2.31,3.99,2.57,8.4,1.26,16.15,4.08,22.45,9.96,7.26,6.78,11.5,15.19,11.93,25.14,.45,10.29-5.86,19.13-15.62,22.8-1.18,.45-2.41,.78-3.56,1.29-1.83,.82-1.96,2.44-.24,3.47,1.92,1.14,4.03,1.69,6.3,1.37,.53-.08,1.11-.24,1.51,.22,.51,.58,.03,1.14-.23,1.65-1.17,2.33-2.67,4.45-4.29,6.48-4.05,5.08-7.05,10.8-10.15,16.45-.38,.69-.65,1.46-.62,2.29-2.7,4.08-3.92,8.77-5.53,13.3-3.5,9.81-5.17,20-6.1,30.33-.25,2.73-.04,5.46,.22,8.18,.12,1.26-.07,1.74-1.57,1.47-14.38-2.59-27.41-8.18-38.93-17.24-10.42-8.2-18.69-18.25-25.73-29.39-.85-1.35-1.7-2.71-3.1-3.59,.07-.82-.17-1.55-.55-2.27-3.33-6.26-6.35-12.67-8.76-19.36-2.13-5.91-4.1-11.87-5.19-18.08,1.44,.94,2.87,1.9,4.34,2.81,1.02,.64,2.12,1.05,3.38,.99,1.01-.05,1.91-.31,2.21-1.34,.28-.99,.18-2-.76-2.69-1.6-1.18-3.21-2.35-4.84-3.5-6.21-4.35-10.79-9.95-13.33-17.16-.4-1.15-.65-2.64-2.24-2.72-1.66-.08-2.36,1.24-2.98,2.53-.28,.58-.57,1.16-.97,1.99-.4-.99-.7-1.76-1.01-2.53v-.02Zm61.48-46.45c-2.82-.1-5.54,.39-8.16,1.4-5.03,1.94-7.95,7.1-7.14,12.44,.9,5.91,4.3,9.51,9.94,11.19,.55,.16,1.46,0,1.5,.97,.06,1.65,.28,3.35-.79,4.79-2.08,2.8-4.93,4.11-8.34,3.52-3.7-.64-6.5-2.68-7.55-6.48-.79-2.88-1.6-3.89-3.34-3.62-1.86,.29-2.73,2.07-2.33,4.79,.05,.32,.16,.64,.27,.95,1.39,4.13,4,7.45,8.14,8.66,3.65,1.07,4.89,3.07,5.76,6.59,1.61,6.47,7.21,9.35,13.43,8.71,5.95-.61,9.83-4.32,11.17-10.18,.31-1.35,.63-2.09,2.29-2.22,3.91-.31,7.51-1.71,10.53-4.28,2.38-2.02,4.27-4.36,3.98-7.8-.12-1.43-.93-2.19-2.23-2.41-1.25-.21-2.44,.04-2.99,1.37-2.42,5.8-7.17,7.47-12.91,7.27-5.6-.2-9.13-3.52-9.1-8.25,0-1.26,.42-1.72,1.66-1.91,2.9-.46,5.54-1.65,7.77-3.58,3.47-3.02,4.99-6.95,4.39-11.42-.63-4.63-3.24-7.87-7.89-9.31-2.64-.82-5.32-1.09-8.05-1.2h-.01Z" style="fill:#faeac7;"/><path d="M346.41,239.03c-3.01-5.73-7.9-9.56-13.08-13.12-.44-.3-.88-.59-1.33-.88-1.44-.92-1.97-1.95-1.33-3.8,2.04-5.86,2.66-12.03,3.45-18.14,.4-3.09,1.04-6.15,.81-9.3-.07-.89,.34-1.14,1.24-.86,11.08,3.45,22.54,5.58,33.38,9.89,7.11,2.82,14.24,5.44,20.23,10.45,11.52,9.62,17.38,21.77,15.96,36.81-.96,10.11-5.86,18.69-12.56,26.18-10.78,12.05-24.7,18.55-40.11,22.36-12.67,3.13-25.55,4.31-38.55,3.66-9.93-.49-19.62-2.39-28.79-6.43-2.14-.94-4.2-2.03-5.86-3.71-1.28-1.29-1.16-1.82,.71-2.35,2.74-.77,5.52-1.43,8.29-2.08,11.02-2.59,21.83-5.8,31.6-11.69,7.46-4.5,14.83-9.31,20.5-15.98,4.84-5.69,9.38-11.77,10.93-19.43,.82-4.05,.19-7.9-1.45-11.61-.38-.86-1.01-1.59-2.13-1.52-1.36,.08-1.05,1.28-1.14,1.98-.39,3.16,.25,6.39-.8,9.6l.03-.03Z" style="fill:#a96f41; stroke:#a96f41; stroke-miterlimit:10;"/><path d="M234.39,226.2c1.76,.27,2.85,1.64,4.13,2.62,7.57,5.79,16.19,8.14,25.59,8.57,12.27,.56,23.27-3.01,32.9-10.28,7.55-5.7,13.77-12.69,18.02-21.42,3.23-6.65,5.54-13.49,6.87-20.7,.75-4.03,1.2-8.13,1.31-12.23,.11-4.33-.01-8.66,0-12.99,0-.67-.35-1.53,.68-1.85,2.33,9.28,3.83,18.67,4.31,28.24,.53,10.55,.02,21-2.78,31.21-5.74,20.97-19.32,34.73-39.49,42.24-6.53,2.43-13.29,4.11-20.06,5.75-5.75,1.39-11.58,2.17-17.45,2.73-.62,.06-1.44,.4-1.85-.24-.36-.55,.33-1.08,.51-1.63,1.02-2.97,3.44-4.81,5.6-6.84,.8-.75,1.15-1.51,.78-2.46-.45-1.16-1.55-.87-2.43-.72-1.27,.22-2.36,.91-3.35,1.7-3.09,2.45-5.95,5.12-7.6,8.82-.05,.12-.08,.26-.15,.37-.85,1.42-4.54,1.37-7.61-.04-1.71-.78-1.06-2.03-.74-3.23,.73-2.69,2.46-4.67,4.59-6.36,.99-.78,1.99-1.55,3-2.31,.6-.45,1.23-.88,.84-1.77-.36-.82-1.12-.86-1.87-.83-2.9,.12-5.2,1.58-7.14,3.53-2.16,2.17-4.02,4.58-5.02,7.56-.53,1.59-1.26,1.75-2.3,.48-.88-1.07-1.41-2.26-1.11-3.84,1.12-5.89,5.05-9.13,10.26-11.24,2.61-1.05,5.33-1.62,8.15-1.66,.27,0,.59,.06,.79-.06,2.62-1.58,5-.11,7.38,.66,2.79,.9,5.62,1.56,8.48,2.11,1.96,.38,3.82-.3,5.63-.97,.66-.24,1.12-.76,1.01-1.55-.17-1.17-.86-1.95-2.01-2.2-2.14-.46-4.33-.73-6.44-1.28-8.49-2.18-15.97-5.86-20.15-14.18-.6-1.19-1.04-2.44-1.32-3.74l.04,.03Z" style="fill:#a96f41; stroke:#a96f41; stroke-miterlimit:10;"/><path d="M37.07,199.71c4.41,8.93,10.24,16.84,17.09,24.04,7.56,7.95,16.15,14.56,25.73,19.87,1.3,.72,1.19,1.29,.37,2.18-6.43,6.96-14,11.71-23.74,12.27-1.32,.08-2.65,.26-3.97,.28-1.18,.02-1.79-.33-1.48-1.82,.62-3.04,2.15-5.53,4.09-7.85,.56-.67,1.34-1.34,.57-2.23-.78-.9-1.75-.47-2.52,.08-3.4,2.44-6.35,5.32-7.89,9.3-1.2,3.1-1.99,2.31-6.13,1.53-2.11-.4-2.42-1.67-1.68-4.27,.8-2.79,2.65-4.87,4.57-6.92,.52-.56,1.7-1.08,.9-2.09-.7-.88-1.74-.5-2.57-.07-3.94,2.03-6.79,5.04-8.28,9.27-.13,.38-.25,.76-.4,1.13-.05,.12-.15,.22-.24,.35-1.79-.52-2.17-1.97-2.27-3.55-.26-4.27,2.87-8.81,7.19-10.83,1.96-.92,4.14-1.41,5.77-3.02,1-.98,1.25-1.98,.8-3.23-2.25-6.32-4.62-12.59-6.7-18.96-1.44-4.39-3.16-8.71-4.09-13.26,1.7-.58,3.34-1.28,4.89-2.18v-.02Z" style="fill:#a96f41; stroke:#a96f41; stroke-miterlimit:10;"/><path d="M226.61,220.25c.76,2.27,.56,4.71,1.37,7.01,1.69,4.84,4.25,9.08,7.82,12.74,.49,.5,.87,1.1,1.41,1.8-4.02,1.28-7.97,2.53-11.13,5.04-4.71,3.74-10.39,3.34-15.72,4.15-10.88,1.65-21.87,1.83-32.86,1.14-.38-.02-.77-.07-1.56-.14,5.84-6.41,10.84-13.1,15.55-20,3.66-.82,7.37,0,11.08-.36,6.91-.68,13.15-2.81,18.78-6.91,1.88-1.37,3.02-3.57,5.27-4.46h-.01Z" style="fill:#f9e9c6; stroke:#f9e9c6; stroke-miterlimit:10;"/><path d="M115.49,249.81c6.35,3.8,13.26,5.86,20.57,6.8,5.25,.68,10.48,.52,15.61-.56,6.38-1.35,12.13-4.24,16.85-8.8,5.63-5.44,11.03-11.11,15.76-17.38,.49-.65,1.07-1.21,2-1.07-1.19,3.23-3.42,5.83-5.49,8.46-7.32,9.3-15.23,18.09-24.28,25.73-6.94,5.86-14.87,9.99-23.96,11.45-2.08,.33-4.25,.12-6.38,.21-1.29,.05-1.47-.55-1.11-1.61,.89-2.57,2.63-4.59,4.19-6.74,.64-.88,2.26-1.69,1.25-2.96-1.12-1.4-2.53-.21-3.51,.49-3.03,2.14-5.41,4.94-7.15,8.19-1.06,1.98-2.19,3.15-4.64,2.31-1.29-.44-2.74-.43-4.12-.65-1.61-.26-1.93-1.16-1.64-2.73,.71-3.96,2.49-7.23,5.51-9.88,.6-.52,1.83-1.02,1.06-2.21-.65-1-1.59-.59-2.51-.32-2.93,.86-4.83,3-6.47,5.34-1.33,1.89-2.58,3.9-3.19,6.18-.36,1.36-.86,1.21-1.75,.47-1.78-1.49-1.89-3.38-1.49-5.45,.66-3.4,2.99-5.73,5.3-7.99,1.89-1.85,4.05-3.44,6.49-4.58,1.3-.61,2.35-1.48,3.12-2.69h-.02Z" style="fill:#a96f41; stroke:#a96f41; stroke-miterlimit:10;"/><path d="M37.07,199.71c-1.55,.91-3.19,1.6-4.89,2.18-3.76-10.72-6.56-21.69-8.4-32.89-.85-5.17-1.48-10.38-2.26-15.96,1.79,1.24,3.16,2.31,4.22,3.73,1.09,6.21,3.06,12.17,5.19,18.08,2.4,6.68,5.43,13.09,8.76,19.36,.39,.73,.63,1.45,.55,2.27-2.42-.26-3.04,1.25-3.18,3.23h.01Z" style="fill:#c89156; stroke:#c89156; stroke-miterlimit:10;"/><path d="M226.61,220.25c-2.25,.89-3.39,3.09-5.27,4.46-5.63,4.1-11.87,6.24-18.78,6.91-3.7,.36-7.41-.47-11.08,.36,1.12-2.63,2.83-4.92,4.21-7.4,3.82-6.85,6.93-14,9.02-21.58,.17-.6,.16-1.34,.76-1.78,7.26,1.71,14.56,2.2,21.94,.85,.5,1.44-.23,2.77-.44,4.13-.71,4.68-.5,9.36-.37,14.05h0Z" style="fill:#f9e9c6;"/><path d="M56.75,78.51c-6.24,3.04-12.07,6.79-17.5,11.11-1.06,.84-.88,2.66,0,3.54,1.04,1.04,2.48,.84,3.54,0,5.03-4,10.66-7.49,16.49-10.33,1.21-.59,1.54-2.32,.9-3.42-.72-1.24-2.2-1.49-3.42-.9h-.01Z" style="fill:#c89156;"/><path d="M45.67,92.94c5.79-4.74,11.93-9.04,18.32-12.92,2.75-1.67,.24-5.99-2.52-4.32-6.76,4.1-13.21,8.7-19.34,13.71-1.05,.86-.89,2.65,0,3.54,1.03,1.03,2.49,.86,3.54,0h0Z" style="fill:#c89156;"/><path d="M149.5,76.08c.53,8.82-6.98,17.75-14,19.79-8.43,2.44-15.64,.21-21.52-6.23-5.13-5.62-6.49-12.23-5.15-19.65,1.08-6.01,4.24-10.63,9.05-14.01,6.3-4.42,13.08-4.14,19.56-.43,7.47,4.28,11.91,10.65,12.06,20.53Zm-24.7-13.87c-2.58,0-4.54,2.04-4.55,4.72,0,2.56,2.11,4.81,4.57,4.84,2.46,.03,4.55-2.21,4.52-4.84-.03-2.74-1.95-4.73-4.55-4.73h.01Z" style="fill:#251a13;"/><path d="M57.33,82.8c-2.1,2.62-4.73,4.64-7.52,6.46-.21,.07-.43,.13-.38,.43,0,0,0-.02,0-.03-1.64,.27-3.07,1.17-4.71,1.48-6.07,1.15-10.81-1.39-13.56-6.88-4.95-9.86-.74-23.36,7.11-29.36,7.94-6.06,16.7-3.49,20.83,5.95,3.25,7.43,2.53,14.92-1.75,21.93v.02Zm-3.94-17.81c0-2.74-1.66-4.46-4.23-4.45-2.54,.02-4.34,1.86-4.32,4.45,.02,2.58,1.81,4.39,4.34,4.4,2.66,0,4.22-1.62,4.21-4.4Z" style="fill:#251a13;"/><path d="M156.59,26.6c2.02-.37,3.76-.6,5.37,.23,1.32,.68,2.69,1.46,2.44,3.26-.26,1.91-1.87,1.75-3.25,1.87-.37,.03-.79-.23-1.12,.23,.16,.79,.89,1.1,1.45,1.5,2.13,1.52,2.43,3.71,2.2,6.04-.13,1.35-1.45,1.76-2.74,.77-1.62-1.25-3.09-2.69-4.68-4-.82-.67-1.76-1.19-2.6-1.84-1-.79-1.99-1.11-3.32-.74-1.36,.37-2.37-.38-2.6-1.78-.25-1.51-.39-3.12,.39-4.5,2.88-5.12,6.44-9.6,11.82-12.35,.91-.47,1.87-.66,2.84-.88,1.15-.26,2.07-.17,2.66,1.05,.63,1.3,.32,2.34-.74,3.18-1.41,1.12-2.83,2.22-4.3,3.25-1.62,1.13-2.73,2.65-3.84,4.72h.02Z" style="fill:#271c16;"/><path d="M71.02,88.71c2.72,.1,5.41,.38,8.05,1.2,4.65,1.44,7.26,4.68,7.89,9.31,.61,4.47-.91,8.41-4.39,11.42-2.23,1.94-4.86,3.12-7.77,3.58-1.24,.2-1.65,.65-1.66,1.91-.03,4.73,3.51,8.05,9.1,8.25,5.74,.2,10.5-1.48,12.91-7.27,.55-1.33,1.74-1.58,2.99-1.37,1.31,.22,2.11,.99,2.23,2.41,.3,3.44-1.6,5.78-3.98,7.8-3.02,2.57-6.62,3.97-10.53,4.28-1.66,.13-1.98,.87-2.29,2.22-1.34,5.86-5.22,9.57-11.17,10.18-6.23,.64-11.83-2.23-13.43-8.71-.87-3.52-2.11-5.52-5.76-6.59-4.14-1.21-6.74-4.53-8.14-8.66-.11-.31-.22-.63-.27-.95-.4-2.71,.47-4.5,2.33-4.79,1.74-.27,2.55,.74,3.34,3.62,1.05,3.8,3.84,5.84,7.55,6.48,3.41,.59,6.26-.72,8.34-3.52,1.07-1.45,.86-3.14,.79-4.79-.04-.98-.95-.81-1.5-.97-5.64-1.67-9.04-5.28-9.94-11.19-.81-5.34,2.11-10.51,7.14-12.44,2.63-1.01,5.34-1.5,8.16-1.4h.01Zm7.28,6.91c-4.27-2.51-8.69-2.65-13.21-.76-4.53,.99-6.2,7.2-2.91,10.85,4.21,4.67,13.48,4.63,17.56-.12,2.94-3.42,2.27-8.6-1.44-9.97Zm-9.49,30.47c-1.77,1.12-3.37,2.01-5.12,2.26-1.49,.21-1.48,.94-1.3,2.05,.73,4.43,4.22,7.74,8.29,7.85,3.91,.1,7.66-3.06,8.71-7.22,.19-.74,.13-1.22-.59-1.38-2.55-.56-4.82-1.72-7.04-3.43-.19,2.18-.37,4.08-.53,5.97-.06,.68-.04,1.39-.99,1.42-1.16,.04-.97-.83-1.02-1.54-.13-1.86-.26-3.71-.41-6v.02Z" style="fill:#362418;"/><path d="M49.43,89.7c-.05-.3,.17-.37,.38-.43,.03,.28-.06,.46-.38,.43Z" style="fill:#c89156;"/><path d="M124.8,62.21c2.6,0,4.52,1.99,4.55,4.73,.03,2.63-2.06,4.87-4.52,4.84-2.46-.03-4.58-2.28-4.57-4.84,.01-2.68,1.97-4.72,4.55-4.72h-.01Z" style="fill:#f5f4f3;"/><path d="M53.4,64.99c0,2.77-1.55,4.41-4.21,4.4-2.53,0-4.32-1.83-4.34-4.4-.02-2.58,1.77-4.43,4.32-4.45,2.58-.02,4.22,1.71,4.23,4.45Z" style="fill:#f5f4f3;"/><path d="M78.3,95.63c3.71,1.37,4.38,6.55,1.44,9.97-4.08,4.75-13.36,4.79-17.56,.12-3.28-3.65-1.62-9.86,2.91-10.85-1.77,2.84-1.41,3.6,1.87,4.46,2.24,.59,4.51,.45,6.73,.23,2.97-.29,4.47-1.76,4.61-3.93h0Z" style="fill:#4f3a2a; stroke:#4f3a2a; stroke-miterlimit:10;"/><path d="M68.81,126.1c.16,2.28,.29,4.14,.41,6,.05,.71-.15,1.58,1.02,1.54,.95-.03,.94-.74,.99-1.42,.15-1.9,.33-3.79,.53-5.97,2.22,1.7,4.49,2.86,7.04,3.43,.72,.16,.77,.64,.59,1.38-1.05,4.16-4.8,7.31-8.71,7.22-4.08-.1-7.56-3.42-8.29-7.85-.18-1.11-.19-1.85,1.3-2.05,1.76-.24,3.35-1.13,5.12-2.26v-.02Z" style="fill:#fff;"/><path d="M78.3,95.63c-.13,2.18-1.64,3.65-4.61,3.93-2.22,.22-4.49,.35-6.73-.23-3.28-.86-3.64-1.62-1.87-4.46,4.53-1.89,8.94-1.75,13.21,.76Z" style="fill:#6f5a49; stroke:#6f5a49; stroke-miterlimit:10;"/><path d="M191.48,231.98c-4.71,6.9-9.71,13.59-15.55,20,.8,.07,1.18,.12,1.56,.14,10.99,.69,21.98,.51,32.86-1.14,5.32-.81,11-.41,15.72-4.15,3.16-2.51,7.11-3.76,11.13-5.04-.54-.69-.92-1.3-1.41-1.8-3.58-3.65-6.13-7.9-7.82-12.74-.8-2.3-.61-4.74-1.37-7.01-.12-4.69-.34-9.37,.37-14.05,.21-1.36,.93-2.69,.44-4.13,.11-.31,.25-.61,.33-.93,4.94-18.48,16.09-31.7,33.57-39.54,2.45-1.1,4.96-1.84,7.67-1.88,1.08-.02,1.84,.38,2.17,1.37,.32,.97,.03,1.82-.77,2.5-.89,.75-1.98,1.04-3.05,1.38-8.62,2.78-15.87,7.73-21.79,14.47-4.54,5.16-8.05,11.03-10.15,17.65-3.06,9.61-4.46,19.28-.99,29.11,.28,1.3,.72,2.55,1.32,3.74,4.19,8.33,11.66,12,20.15,14.18,2.12,.54,4.3,.82,6.44,1.28,1.15,.25,1.84,1.02,2.01,2.2,.11,.78-.35,1.3-1.01,1.55-1.81,.67-3.66,1.35-5.63,.97-2.86-.55-5.7-1.22-8.48-2.11-2.38-.77-4.76-2.23-7.38-.66-.2,.12-.52,.06-.79,.06-2.82,.04-5.54,.61-8.15,1.66-5.21,2.1-9.13,5.35-10.26,11.24-.3,1.58,.23,2.77,1.11,3.84,1.04,1.27,1.77,1.11,2.3-.48,1-2.98,2.87-5.4,5.02-7.56,1.94-1.95,4.24-3.42,7.14-3.53,.75-.03,1.51,0,1.87,.83,.39,.89-.24,1.32-.84,1.77-1.01,.76-2.01,1.53-3,2.31-2.13,1.69-3.86,3.66-4.59,6.36-.32,1.19-.97,2.44,.74,3.23,3.07,1.41,6.76,1.46,7.61,.04,.07-.11,.09-.25,.15-.37,1.65-3.7,4.5-6.37,7.6-8.82,1-.79,2.08-1.48,3.35-1.7,.88-.15,1.98-.44,2.43,.72,.37,.94,.02,1.71-.78,2.46-2.16,2.02-4.59,3.86-5.6,6.84-.19,.55-.87,1.07-.51,1.63,.41,.64,1.23,.3,1.85,.24,5.87-.56,11.7-1.34,17.45-2.73,6.77-1.63,13.53-3.32,20.06-5.75,20.17-7.51,33.74-21.27,39.49-42.24,2.8-10.21,3.31-20.66,2.78-31.21-.48-9.57-1.99-18.96-4.31-28.24-3.16-14.32-8.22-27.92-15.24-40.81-8.52-15.65-19.6-29.16-33.09-40.77-6.12-5.27-12.78-9.71-19.73-13.76-10.43-6.08-21.47-10.7-33.12-13.9-10.04-2.76-20.27-4.39-30.66-4.91-3.45-.17-6.93-.29-10.37,.13-.96,.12-2.3-.14-2.82,.68-.59,.93,.71,1.66,1.03,2.54,.14,.37,.23,.76,.4,1.1,4.42,8.7,8.43,17.59,12.23,26.58,.47,1.11,.75,2.29,.61,3.5-.14,1.22-.76,2.18-2,2.47-1.17,.27-1.6-.77-2.09-1.52-2.76-4.24-4.79-8.87-6.83-13.47-2.78-6.24-5.25-12.66-9.4-18.15-2.8-3.71-2.18-7.05,.05-10.62,2.75-4.41,4-9.26,3.53-14.44-.44-4.81-2.05-9.1-5.84-12.45-7.85-6.93-19.23-4.45-25.82,1.47-2.15,1.94-3.51,4.48-5.19,6.78-1.58,2.15-3.06,2.05-4.2-.29-.62-1.27-1.46-1.86-2.78-2.24-6.29-1.8-12.7-2.81-19.23-3.23-11.36-.74-22.61-.07-33.69,2.6-4.97,1.2-9.81,2.82-14.29,5.38-.83,.47-1.74,.97-2.55,.13-.74-.76-.93-1.74-.42-2.77,.12-.24,.15-.52,.29-.74,.84-1.3,.48-2.47-.18-3.74-2.28-4.44-6.39-6.25-10.84-7.37-4.33-1.1-8.3-.26-11.45,3.21-2.41,2.66-3.58,5.86-4.02,9.33-.62,4.88,.86,9.29,3.33,13.43,.29,.48,.56,.73,1.06,.24,1.78-1.78,3.55-3.56,5.35-5.32,.56-.55,.47-1.06,.25-1.79-.72-2.37-2.32-4.28-3.31-6.51-.48-1.08-.89-2.21,0-3.16,.89-.93,2.11-.73,3.17-.23,.83,.4,1.71,.87,2.3,1.54,2.12,2.41,3.55,5.24,4.55,8.28,.44,1.34,.08,2.42-.98,3.38-3.12,2.79-5.95,5.89-8.88,8.89-7.66,7.83-12.94,17.11-16.8,27.27-2.13,5.61-3.37,11.44-4.03,17.4-.19,1.67-.76,2.86-2.54,3.58-2.03,.83-3.7,2.36-5,4.19-1.89,2.66-3.49,5.48-4.78,8.49-5.22,12.23-5.16,24.49-.35,36.8,.31,.77,.62,1.54,1.01,2.53,.41-.83,.69-1.41,.97-1.99,.62-1.29,1.31-2.61,2.98-2.53,1.59,.08,1.84,1.57,2.24,2.72,2.53,7.21,7.12,12.81,13.33,17.16,1.63,1.14,3.23,2.32,4.84,3.5,.94,.69,1.04,1.7,.76,2.69-.3,1.03-1.2,1.28-2.21,1.34-1.26,.07-2.36-.35-3.38-.99-1.46-.91-2.89-1.87-4.34-2.81-1.07-1.42-2.43-2.49-4.22-3.73,.78,5.58,1.41,10.79,2.26,15.96,1.84,11.2,4.64,22.17,8.4,32.89,.93,4.55,2.65,8.87,4.09,13.26,2.09,6.37,4.46,12.65,6.7,18.96,.44,1.25,.19,2.26-.8,3.23-1.64,1.61-3.82,2.1-5.77,3.02-4.32,2.02-7.45,6.57-7.19,10.83,.1,1.58,.48,3.03,2.27,3.55,.09-.13,.19-.23,.24-.35,.14-.37,.26-.75,.4-1.13,1.48-4.23,4.34-7.24,8.28-9.27,.83-.43,1.87-.81,2.57,.07,.8,1.01-.37,1.53-.9,2.09-1.92,2.05-3.77,4.13-4.57,6.92-.74,2.6-.43,3.87,1.68,4.27,4.13,.78,4.92,1.57,6.13-1.53,1.55-3.98,4.49-6.86,7.89-9.3,.77-.55,1.74-.99,2.52-.08,.77,.89,0,1.57-.57,2.23-1.94,2.31-3.46,4.81-4.09,7.85-.31,1.49,.3,1.85,1.48,1.82,1.32-.03,2.65-.21,3.97-.28,9.74-.56,17.31-5.32,23.74-12.27,.82-.88,.93-1.45-.37-2.18-9.58-5.31-18.17-11.92-25.73-19.87-6.85-7.2-12.68-15.11-17.09-24.04,.14-1.98,.76-3.49,3.18-3.23,1.4,.88,2.24,2.24,3.1,3.59,7.04,11.14,15.31,21.2,25.73,29.39,11.52,9.06,24.55,14.65,38.93,17.24,1.51,.27,1.69-.21,1.57-1.47-.26-2.72-.47-5.44-.22-8.18,.93-10.33,2.6-20.52,6.1-30.33,1.62-4.53,2.83-9.22,5.53-13.3,.35-.29,.69-.61,1.07-.88,.91-.66,1.8-1.48,3.02-.63,1.16,.81,.74,1.84,.38,2.86-.95,2.69-1.89,5.38-2.84,8.06-4.1,11.58-7,23.41-7.14,35.78-.04,3.73,0,7.45,.01,11.18-.77,1.21-1.82,2.09-3.12,2.69-2.43,1.14-4.59,2.73-6.49,4.58-2.31,2.26-4.64,4.59-5.3,7.99-.4,2.07-.29,3.96,1.49,5.45,.89,.74,1.38,.89,1.75-.47,.61-2.27,1.86-4.28,3.19-6.18,1.64-2.34,3.54-4.49,6.47-5.34,.92-.27,1.86-.67,2.51,.32,.77,1.19-.46,1.68-1.06,2.21-3.02,2.65-4.8,5.93-5.51,9.88-.28,1.57,.03,2.47,1.64,2.73,1.37,.22,2.82,.21,4.12,.65,2.45,.84,3.58-.33,4.64-2.31,1.74-3.26,4.12-6.06,7.15-8.19,.98-.69,2.39-1.89,3.51-.49,1.02,1.27-.61,2.08-1.25,2.96-1.56,2.15-3.3,4.17-4.19,6.74-.36,1.06-.18,1.66,1.11,1.61,2.13-.09,4.3,.13,6.38-.21,9.09-1.46,17.02-5.58,23.96-11.45,9.05-7.64,16.96-16.44,24.28-25.73,2.07-2.63,4.3-5.23,5.49-8.46,3.23-3.78,5.23-8.26,7.31-12.7,3.96-8.44,6.93-17.18,7.88-26.52,.29-2.83,.73-5.65,1.16-8.47,.13-.81,.18-1.84,1.3-1.99,1.13-.15,1.9,.47,2.39,1.44,.2,.41,.36,.87,.4,1.32,.24,2.38,.49,4.75,.43,7.15-.11,4.13-1.03,8.15-1.66,12.2-.6,.44-.59,1.17-.76,1.78-2.09,7.58-5.2,14.73-9.02,21.58-1.38,2.48-3.09,4.77-4.21,7.4l-.03,.05Zm154.92,7.05c1.06-3.21,.42-6.44,.8-9.6,.09-.7-.22-1.9,1.14-1.98,1.12-.07,1.75,.66,2.13,1.52,1.64,3.72,2.27,7.56,1.45,11.61-1.55,7.66-6.09,13.74-10.93,19.43-5.67,6.67-13.04,11.48-20.5,15.98-9.77,5.89-20.58,9.1-31.6,11.69-2.78,.65-5.55,1.31-8.29,2.08-1.88,.53-1.99,1.06-.71,2.35,1.67,1.69,3.73,2.77,5.86,3.71,9.17,4.04,18.86,5.94,28.79,6.43,13,.65,25.88-.53,38.55-3.66,15.41-3.81,29.34-10.31,40.11-22.36,6.7-7.49,11.6-16.06,12.56-26.18,1.42-15.04-4.44-27.19-15.96-36.81-6-5.01-13.13-7.63-20.23-10.45-10.84-4.31-22.3-6.44-33.38-9.89-.91-.28-1.31-.04-1.24,.86,.23,3.15-.41,6.21-.81,9.3-.79,6.12-1.41,12.28-3.45,18.14-.65,1.86-.12,2.88,1.33,3.8,.45,.29,.89,.58,1.33,.88,5.17,3.56,10.06,7.39,13.08,13.12l-.03,.03Zm-23.86,.04c-7.19,10.81-17.01,18.48-28.77,23.69-13.95,6.18-28.6,9.87-43.77,11.26-8.86,.81-17.68,.47-26.07-3.12-6.06-2.59-8.45-7.02-7.01-13.4,.3-1.33,.09-1.44-1.15-1.25-11.28,1.72-22.62,2.53-34.03,2.13-2.99-.1-5.98-.34-8.96-.67-1.37-.15-2.31,.17-3.32,1.14-6.09,5.85-12.27,11.59-19.8,15.67-14.2,7.69-28.91,8.74-44.33,4.25-13.25-3.86-12.21-14.87-6.56-21.87,1.34-1.66,2.85-3.13,4.66-4.78-1.87-.51-3.54-.94-5.2-1.43-2.61-.78-5.23-1.51-7.78-2.43-1.95-.71-3.41-.33-4.83,1.17-4.33,4.57-9.33,8.28-15.09,10.82-7.75,3.41-15.96,4.42-24.35,4.03-5-.23-9.87-1.22-14.61-2.88-7.04-2.47-9.78-8.5-6.97-15.42,1.92-4.74,5.39-8.07,9.81-10.34,1.91-.98,2-1.89,1.36-3.71-4.72-13.43-9.55-26.84-13.26-40.6-3.89-14.43-6.31-29.08-6.83-44.02-.04-1.26-.52-2.3-1.25-3.37-.63,.61-1.23,1.17-1.81,1.75-1.77,1.79-3.06,1.79-4.66-.15-1.76-2.12-2.98-4.6-3.92-7.13-6.02-16.41-5.66-32.4,3.48-47.72,1.92-3.22,4.2-6.18,7.21-8.47,1.47-1.11,2.19-2.43,2.47-4.29,2.05-13.9,7.55-26.37,16.16-37.44,1.65-2.12,1.96-3.8,.55-6.26-3.62-6.29-4.89-13.21-2.83-20.2C35.77-2.01,52.99-3.53,63.53,5.6c1.72,1.49,3.26,3.2,4.27,5.23,.85,1.71,1.87,1.79,3.52,1.24,20.03-6.65,40.29-7.19,60.75-2.2,.64,.16,1.3,.3,1.92,.52,3.41,1.24,3.37,1.22,5.79-1.57,12.19-14.02,33.76-9.86,40.31,3.88,3.6,7.54,3.56,15.42,.48,23.23-.19,.49-.36,.99-.61,1.7,4.37-.59,8.59-.28,12.81-.02,11.51,.7,22.78,2.58,33.88,5.78,14.16,4.09,27.29,10.24,39.44,18.49,23.57,15.99,41.17,37.02,53.06,62.91,6.85,14.92,11.33,30.51,14,46.65,.7,4.26,1.35,8.55,1.31,12.89-.01,1.59,.54,2.32,2.1,2.8,6.79,2.06,13.8,3.26,20.64,5.1,11.82,3.18,23.32,7.14,33.46,14.28,11.17,7.87,18.43,18.29,20.63,31.92,2.13,13.17-1.28,25.01-8.81,35.84-7.94,11.39-18.84,19.01-31.34,24.52-12.41,5.47-25.52,8.08-38.98,9.1-13.43,1.01-26.72,.18-39.75-3.49-4.62-1.3-9.03-3.13-13.19-5.53-2.09-1.21-3.98-2.68-5.37-4.69-2.38-3.46-1.55-6.71,2.23-8.57,3.01-1.48,6.32-1.97,9.53-2.79,13.58-3.46,26.62-8.22,38.26-16.21,6.2-4.25,12.1-8.88,16.14-15.43,.17-.28,.29-.59,.43-.89,2.28-3.83,1.95-7.96-.91-11.84-2.83-3.85-6.98-6.05-10.77-8.71-.68-.48-1.05-.22-1.39,.44-1.59,2.97-3.21,5.92-4.82,8.87v.02Z" style="fill:#271c16;"/></g></svg>